<?xml version="1.0" standalone="no"?>
<!DOCTYPE svg PUBLIC "-//W3C//DTD SVG 20010904//EN"
 "http://www.w3.org/TR/2001/REC-SVG-20010904/DTD/svg10.dtd">
<svg version="1.0" xmlns="http://www.w3.org/2000/svg"
 width="310.000000pt" height="310.000000pt" viewBox="0 0 310.000000 310.000000"
 preserveAspectRatio="xMidYMid meet">
<metadata>
Created by potrace 1.14, written by Peter Selinger 2001-2017
</metadata>
<g transform="translate(0.000000,310.000000) scale(0.100000,-0.100000)"
fill="#000000" stroke="none">
<path d="M848 2840 c-65 -11 -104 -36 -116 -76 -21 -71 8 -115 112 -166 45
-22 97 -51 116 -65 l35 -26 -45 8 c-210 37 -451 -27 -595 -158 -50 -46 -58
-57 -62 -97 -3 -34 1 -53 16 -77 37 -58 59 -66 204 -69 111 -2 270 -24 285
-39 2 -2 -10 -11 -28 -20 -80 -41 -147 -125 -174 -215 -21 -71 -20 -106 4
-130 31 -31 62 -25 111 21 89 84 186 135 288 153 35 6 34 6 -35 -61 -88 -85
-130 -138 -186 -233 -192 -326 -216 -781 -56 -1085 91 -173 236 -291 440 -359
101 -34 161 -41 328 -40 117 1 162 5 230 23 176 47 335 150 431 281 35 48 90
140 84 140 -3 0 1 13 9 29 24 46 56 170 63 246 25 258 -12 480 -117 700 -61
127 -189 286 -279 347 -24 16 -24 18 -5 18 75 0 213 -67 299 -145 66 -60 93
-67 126 -34 47 47 0 195 -88 282 -26 26 -52 47 -58 47 -5 0 -21 9 -33 18 l-24
18 54 12 c97 21 122 24 249 26 139 3 164 12 194 73 29 60 14 124 -41 169 -145
118 -323 179 -496 169 -46 -2 -99 -9 -118 -14 l-35 -10 30 25 c17 14 68 45
115 68 47 24 93 53 103 64 38 42 26 120 -23 159 -26 20 -148 36 -236 29 -175
-12 -333 -96 -442 -235 l-18 -23 -17 25 c-108 165 -372 265 -599 227z"/>
</g>
</svg>
